PathFileType	4	(X/Y/Z)	Walk1.trc
DataRate	CameraRate	NumFrames	NumMarkers	Units	OrigDataRate	OrigDataStartFrame	OrigNumFrames
200.000000	200.000000	4	69	mm	200.000000	327	577
Frame#	Times		LFHD		RFHD		RBHD		C7		CLAV		STRN		RBack		LASI		RASI		RACR1		RUA1		RFA1		RWRU		LACR1		LUA1		LElbow		LWRU		RTH3		RTH2		RTH4		RLFC		RMT5		LTH3		LTH2		LTH4		LLFC		LTB1		LTB3		LTB2		LTB4		LLMAL		LMMAL		LMT1		LMT5		LToe		LowerBodyModelVer		PELOrigin		LFA1		LTH1		LBHD		RElbow		RPSI		LCAR		LPSI		RCAL		LHJC		MidPelvis		OPelvis		RHJC		SACR		XPelvis		YPelvis		ZPelvis		RTH1		RMT1		RElbowM		RToe		RLMAL		RCAR		LWRR		RTB2		RTB1		RWRR		RTB3		RTB4		RMMAL		T10		LCAL		LElbowM
			X1	Y1	Z1	X2	Y2	Z2	X3	Y3	Z3	X4	Y4	Z4	X5	Y5	Z5	X6	Y6	Z6	X7	Y7	Z7	X8	Y8	Z8	X9	Y9	Z9	X10	Y10	Z10	X11	Y11	Z11	X12	Y12	Z12	X13	Y13	Z13	X14	Y14	Z14	X15	Y15	Z15	X16	Y16	Z16	X17	Y17	Z17	X18	Y18	Z18	X19	Y19	Z19	X20	Y20	Z20	X21	Y21	Z21	X22	Y22	Z22	X23	Y23	Z23	X24	Y24	Z24	X25	Y25	Z25	X26	Y26	Z26	X27	Y27	Z27	X28	Y28	Z28	X29	Y29	Z29	X30	Y30	Z30	X31	Y31	Z31	X32	Y32	Z32	X33	Y33	Z33	X34	Y34	Z34	X35	Y35	Z35	X36	Y36	Z36	X37	Y37	Z37	X38	Y38	Z38	X39	Y39	Z39	X40	Y40	Z40	X41	Y41	Z41	X42	Y42	Z42	X43	Y43	Z43	X44	Y44	Z44	X45	Y45	Z45	X46	Y46	Z46	X47	Y47	Z47	X48	Y48	Z48	X49	Y49	Z49	X50	Y50	Z50	X51	Y51	Z51	X52	Y52	Z52	X53	Y53	Z53	X54	Y54	Z54	X55	Y55	Z55	X56	Y56	Z56	X57	Y57	Z57	X58	Y58	Z58	X59	Y59	Z59	X60	Y60	Z60	X61	Y61	Z61	X62	Y62	Z62	X63	Y63	Z63	X64	Y64	Z64	X65	Y65	Z65	X66	Y66	Z66	X67	Y67	Z67	X68	Y68	Z68	X69	Y69	Z69

327	1.635	-5.6787	1551.8	-58.095	-8.5779	1550.5	39.53	-177.4	1575.6	43.219	-241.76	1415.7	-19.286	-88.355	1329.1	-12.997	-32.483	1211.2	8.2678	-312.22	1318.4	70.709	-90.921	952	-181.41	-104.35	963.99	178.87	-176.76	1376.1	158.04	-232.03	1239.5	245.87	-242.93	945.01	291.61	-274.11	841.93	319.62	-140.51	1350.4	-196.27	-143.61	1204.3	-275.64	-185.77	1060.9	-319.24	-80.241	841.41	-366.68	-94.362	564.04	206	-60.303	664.08	204.8	-116.76	647.89	218.24	-75.81	475.56	200.12	14.959	45.259	210.34	-182.82	556.31	-160.05	-111.75	632.74	-150.46	-159.52	636.85	-186.15	-222.79	486.25	-148.92	-219.66	331.33	-43.431	-248.83	162.64	-52.399	-232.85	250.84	-111.17	-237.02	247.61	-49.796	-298.53	69.88	-113.01	-291.16	73.326	-28.607	-167.09	35.064	-31.235	-182.96	25.635	-122.26	-121.53	29.783	-33.481	9	2014	4	-97.636	957.99	-1.274	-98.35	957.73	-335.16	-132.71	713.03	-212.91	-156.66	1562.1	-90.543	-291.37	1081	280.36	-347.51	977.81	26.303	-27.069	813.51	-360.33	-327.94	981.43	-106.1	-143.55	40.023	131.06	-186.79	846.81	-123.7	-217.68	968.81	-20.586	-97.636	957.99	-1.274	-195.92	854.96	121.29	-337.73	979.62	-39.898	-18.049	950.54	1.9409	-90.084	1037.6	-3.6431	-100.61	960.65	78.626	-129.86	730.57	233.48	43.505	53.587	130.22	-326.31	1071.7	195.32	80.25	60.469	147.87	-100.79	79.611	184.95	-240.56	782.78	301.56	-43.978	852.1	-302.36	-55.999	290.31	192.24	-11.993	366.34	133.05	-236.04	839.22	255.26	-48.305	187.03	115.28	-30.149	276.69	124.16	-67.857	90.473	105.72	-310.41	1086	-25.039	-356.62	31.101	-73.243	-211.15	1021.2	-221.75
328	1.64	-1.6048	1551.2	-57.846	-4.5634	1549.8	39.786	-173.37	1575.1	43.386	-237.86	1415.1	-19.152	-84.443	1328.6	-12.761	-28.544	1210.7	8.3758	-308.35	1317.7	70.799	-87.09	951.64	-181.4	-100.15	963.44	178.92	-173	1375.6	158.25	-228.07	1238.9	246.03	-238.99	944.51	291.95	-270.13	841.45	319.98	-136.42	1350	-196.01	-138.45	1204	-275.42	-179.89	1060.5	-319.42	-72.344	841.88	-366.34	-90.007	563.33	205.6	-55.944	663.32	204.13	-112.29	647.14	218.03	-71.212	474.8	199.47	32.789	47.141	211.09	-180.66	556.09	-160.1	-109.14	632.15	-150.73	-157.01	636.52	-186.23	-220.92	486.19	-148.85	-218.47	331.18	-43.418	-248.35	162.61	-52.508	-232.03	250.81	-111.21	-236.22	247.53	-49.829	-298.43	70.012	-113.11	-290.98	73.53	-28.674	-167.07	35.095	-31.288	-182.94	25.56	-122.36	-121.53	29.743	-33.501	9	2014	4	-93.621	957.54	-1.2413	-91.613	958	-334.93	-129.86	712.54	-213.09	-152.56	1561.6	-90.366	-287.45	1080.5	280.58	-343.34	976.95	26.83	-18.993	814.4	-359.69	-324.03	980.68	-105.58	-125.99	37.113	132.87	-182.74	846.26	-123.63	-213.65	968.18	-20.308	-93.621	957.54	-1.2413	-191.63	854.29	121.39	-333.69	978.82	-39.374	-14.019	950.2	1.8846	-86.193	1037.2	-3.581	-96.518	960.16	78.663	-125.43	729.83	233.45	60.609	56.003	130.79	-322.38	1071.1	195.52	97.228	63.985	148.14	-84.037	78.094	186.3	-236.45	782.34	302.06	-36.543	852.85	-301.82	-45.679	290.26	192.22	-4.459	367.22	132.3	-231.97	838.7	255.66	-35.297	186.75	115.74	-19.878	276.98	124.02	-51.903	89.572	106.83	-306.47	1085.4	-24.673	-356.57	31.304	-73.347	-205.6	1020.5	-222.15
329	1.645	2.462	1550.5	-57.567	-0.55541	1549.2	40.072	-169.34	1574.6	43.588	-233.97	1414.6	-18.977	-80.533	1328.1	-12.508	-24.579	1210.3	8.436	-304.48	1317.1	70.94	-83.237	951.27	-181.37	-95.912	962.83	178.98	-169.23	1375.1	158.49	-224.1	1238.3	246.23	-235.02	944	292.31	-266.12	840.95	320.36	-132.36	1349.5	-195.72	-133.3	1203.6	-275.12	-174.02	1060.1	-319.55	-64.512	842.37	-365.95	-85.768	562.54	205.26	-51.652	662.46	203.47	-107.89	646.32	217.84	-66.707	473.98	198.85	50.39	49.28	211.68	-178.43	555.85	-160.12	-106.53	631.59	-151.04	-154.51	636.18	-186.31	-218.99	486.12	-148.77	-217.23	331.02	-43.417	-247.85	162.59	-52.623	-231.19	250.78	-111.26	-235.38	247.46	-49.873	-298.32	70.16	-113.22	-290.79	73.752	-28.741	-167.05	35.125	-31.343	-182.92	25.487	-122.46	-121.53	29.702	-33.521	9	2014	4	-89.574	957.05	-1.1952	-84.919	958.28	-334.63	-127.08	712.04	-213.3	-148.47	1561.1	-90.158	-283.51	1079.9	280.83	-339.14	976.06	27.4	-10.99	815.29	-358.99	-320.1	979.91	-105.03	-108.6	34.535	134.63	-178.67	845.72	-123.56	-209.6	967.52	-20.004	-89.574	957.05	-1.1952	-187.29	853.58	121.49	-329.62	977.99	-38.813	-9.9581	949.84	1.8367	-82.269	1036.7	-3.4927	-92.385	959.62	78.714	-121.01	729.03	233.44	77.41	58.676	131.18	-318.42	1070.5	195.75	113.89	67.73	148.2	-67.436	76.881	187.58	-232.32	781.89	302.58	-29.177	853.6	-301.22	-35.468	290.33	192.15	2.9249	368.11	131.5	-227.85	838.17	256.08	-22.481	186.66	116.14	-9.7779	277.39	123.82	-36.161	88.956	107.86	-302.52	1084.8	-24.255	-356.51	31.533	-73.456	-200.07	1019.9	-222.49
330	1.65	6.5197	1549.9	-57.259	3.4447	1548.5	40.387	-165.32	1574	43.823	-230.09	1414	-18.761	-76.623	1327.5	-12.235	-20.589	1209.9	8.4522	-300.6	1316.4	71.131	-79.36	950.91	-181.32	-91.631	962.16	179.05	-165.46	1374.5	158.74	-220.14	1237.7	246.47	-231.01	943.47	292.7	-262.09	840.43	320.76	-128.33	1349.1	-195.41	-128.16	1203.3	-274.76	-168.17	1059.7	-319.62	-56.745	842.88	-365.51	-81.634	561.67	204.98	-47.423	661.51	202.82	-103.56	645.43	217.68	-62.274	473.1	198.25	67.707	51.647	212.1	-176.16	555.61	-160.11	-103.89	631.05	-151.36	-152	635.83	-186.39	-217.02	486.06	-148.66	-215.94	330.87	-43.428	-247.32	162.57	-52.742	-230.32	250.76	-111.32	-234.5	247.39	-49.927	-298.21	70.328	-113.33	-290.59	73.991	-28.807	-167.03	35.155	-31.398	-182.91	25.416	-122.55	-121.53	29.661	-33.539	9	2014	4	-85.495	956.53	-1.1356	-78.272	958.57	-334.26	-124.34	711.54	-213.53	-144.39	1560.6	-89.919	-279.54	1079.3	281.1	-334.89	975.16	28.01	-3.0606	816.18	-358.23	-316.14	979.13	-104.44	-91.439	32.285	136.36	-174.57	845.17	-123.48	-205.5	966.84	-19.676	-85.495	956.53	-1.1356	-182.91	852.82	121.58	-325.51	977.14	-38.217	-5.8648	949.43	1.7976	-78.311	1036.2	-3.3788	-88.216	959.03	78.779	-116.61	728.15	233.45	93.859	61.575	131.39	-314.43	1069.8	196.01	130.18	71.668	148.04	-51.043	75.965	188.78	-228.16	781.41	303.11	-21.884	854.36	-300.57	-25.377	290.52	192.04	10.164	369.02	130.63	-223.71	837.63	256.52	-9.8818	186.76	116.45	0.14118	277.89	123.54	-20.676	88.617	108.81	-298.56	1084.2	-23.788	-356.44	31.788	-73.567	-194.57	1019.3	-222.79
